<!--
  ~ Copyright (c) 2017.
  ~
  ~   This program is free software: you can redistribute it and/or modify
  ~    it under the terms of the GNU General Public License as published by
  ~    the Free Software Foundation, either version 3 of the License, or
  ~    (at your option) any later version.
  ~
  ~    This program is distributed in the hope that it will be useful,
  ~    but WITHOUT ANY WARRANTY; without even the implied warranty of
  ~    MERCHANTABILITY or FITNESS FOR A PARTICULAR PURPOSE.  See the
  ~    GNU General Public License for more details.
  ~
  ~   You should have received a copy of the GNU General Public License
  ~    along with this program.  If not, see <http://www.gnu.org/licenses/>.
  -->

<svg fill="#791716" height="24" viewBox="0 0 24 24" width="24" xmlns="http://www.w3.org/2000/svg">
    <path d="M9 11H7v2h2v-2zm4 0h-2v2h2v-2zm4 0h-2v2h2v-2zm2-7h-1V2h-2v2H8V2H6v2H5c-1.11 0-1.99.9-1.99 2L3 20c0 1.1.89 2 2 2h14c1.1 0 2-.9 2-2V6c0-1.1-.9-2-2-2zm0 16H5V9h14v11z"/>
    <path d="M0 0h24v24H0z" fill="none"/>
</svg>
