<?xml version="1.0" encoding="UTF-8" standalone="no"?>
<!DOCTYPE svg PUBLIC "-//W3C//DTD SVG 1.1//EN"
 "http://www.w3.org/Graphics/SVG/1.1/DTD/svg11.dtd">
<!-- Generated by graphviz version 2.40.1 (20161225.0304)
 -->
<!-- Title: dependencies Pages: 1 -->
<svg width="745pt" height="284pt"
 viewBox="0.00 0.00 745.00 284.00" xmlns="http://www.w3.org/2000/svg" xmlns:xlink="http://www.w3.org/1999/xlink">
<g id="graph0" class="graph" transform="scale(1 1) rotate(0) translate(4 280)">
<title>dependencies</title>
<polygon fill="#ffffff" stroke="transparent" points="-4,4 -4,-280 741,-280 741,4 -4,4"/>
<text text-anchor="start" x="347.5091" y="-42.4" font-family="sans-serif" font-weight="bold" font-size="14.00" fill="#000000">Legend</text>
<polygon fill="#ffffb3" stroke="transparent" points="134.5,-10 134.5,-30 154.5,-30 154.5,-10 134.5,-10"/>
<text text-anchor="start" x="158.129" y="-15.4" font-family="sans-serif" font-size="14.00" fill="#000000"> &#160;Declarations</text>
<polygon fill="#8dd3c7" stroke="transparent" points="247.5,-10 247.5,-30 267.5,-30 267.5,-10 247.5,-10"/>
<text text-anchor="start" x="271.2251" y="-15.4" font-family="sans-serif" font-size="14.00" fill="#000000"> &#160;Module</text>
<polygon fill="#80b1d3" stroke="transparent" points="333.5,-10 333.5,-30 353.5,-30 353.5,-10 333.5,-10"/>
<text text-anchor="start" x="357.2812" y="-15.4" font-family="sans-serif" font-size="14.00" fill="#000000"> &#160;Bootstrap</text>
<polygon fill="#fdb462" stroke="transparent" points="430.5,-10 430.5,-30 450.5,-30 450.5,-10 430.5,-10"/>
<text text-anchor="start" x="454.1732" y="-15.4" font-family="sans-serif" font-size="14.00" fill="#000000"> &#160;Providers</text>
<polygon fill="#fb8072" stroke="transparent" points="526.5,-10 526.5,-30 546.5,-30 546.5,-10 526.5,-10"/>
<text text-anchor="start" x="550.2258" y="-15.4" font-family="sans-serif" font-size="14.00" fill="#000000"> &#160;Exports</text>
<g id="clust1" class="cluster">
<title>cluster_SharedModule</title>
<polygon fill="none" stroke="#000000" stroke-dasharray="1,5" points="8,-70 8,-268 729,-268 729,-70 8,-70"/>
</g>
<g id="clust2" class="cluster">
<title>cluster_SharedModule_declarations</title>
<polygon fill="none" stroke="#000000" points="123,-78 123,-130 711,-130 711,-78 123,-78"/>
</g>
<g id="clust7" class="cluster">
<title>cluster_SharedModule_imports</title>
<polygon fill="none" stroke="#000000" points="17,-78 17,-130 115,-130 115,-78 17,-78"/>
</g>
<g id="clust8" class="cluster">
<title>cluster_SharedModule_exports</title>
<polygon fill="none" stroke="#000000" points="16,-208 16,-260 721,-260 721,-208 16,-208"/>
</g>
<!-- AppMenusComponent -->
<g id="node1" class="node">
<title>AppMenusComponent</title>
<polygon fill="#ffffb3" stroke="#000000" points="702.5435,-122 559.4565,-122 559.4565,-86 702.5435,-86 702.5435,-122"/>
<text text-anchor="middle" x="631" y="-99.8" font-family="Times,serif" font-size="14.00" fill="#000000">AppMenusComponent</text>
</g>
<!-- SharedModule -->
<g id="node5" class="node">
<title>SharedModule</title>
<polygon fill="#8dd3c7" stroke="#000000" points="379.4231,-187 376.4231,-191 355.4231,-191 352.4231,-187 280.5769,-187 280.5769,-151 379.4231,-151 379.4231,-187"/>
<text text-anchor="middle" x="330" y="-164.8" font-family="Times,serif" font-size="14.00" fill="#000000">SharedModule</text>
</g>
<!-- AppMenusComponent&#45;&gt;SharedModule -->
<g id="edge1" class="edge">
<title>AppMenusComponent&#45;&gt;SharedModule</title>
<path fill="none" stroke="#000000" d="M657.0071,-122.2667C657.0071,-140.5552 657.0071,-166 657.0071,-166 657.0071,-166 389.3103,-166 389.3103,-166"/>
<polygon fill="#000000" stroke="#000000" points="389.3104,-162.5001 379.3103,-166 389.3103,-169.5001 389.3104,-162.5001"/>
</g>
<!-- CollectionsFilterPipe -->
<g id="node2" class="node">
<title>CollectionsFilterPipe</title>
<polygon fill="#ffffb3" stroke="#000000" points="541.4902,-122 406.5098,-122 406.5098,-86 541.4902,-86 541.4902,-122"/>
<text text-anchor="middle" x="474" y="-99.8" font-family="Times,serif" font-size="14.00" fill="#000000">CollectionsFilterPipe</text>
</g>
<!-- CollectionsFilterPipe&#45;&gt;SharedModule -->
<g id="edge2" class="edge">
<title>CollectionsFilterPipe&#45;&gt;SharedModule</title>
<path fill="none" stroke="#000000" d="M497.2484,-122.0091C497.2484,-138.0494 497.2484,-159 497.2484,-159 497.2484,-159 389.2754,-159 389.2754,-159"/>
<polygon fill="#000000" stroke="#000000" points="389.2755,-155.5001 379.2754,-159 389.2754,-162.5001 389.2755,-155.5001"/>
</g>
<!-- FooterComponent -->
<g id="node3" class="node">
<title>FooterComponent</title>
<polygon fill="#ffffb3" stroke="#000000" points="388.8809,-122 271.1191,-122 271.1191,-86 388.8809,-86 388.8809,-122"/>
<text text-anchor="middle" x="330" y="-99.8" font-family="Times,serif" font-size="14.00" fill="#000000">FooterComponent</text>
</g>
<!-- FooterComponent&#45;&gt;SharedModule -->
<g id="edge3" class="edge">
<title>FooterComponent&#45;&gt;SharedModule</title>
<path fill="none" stroke="#000000" d="M330,-122.1061C330,-122.1061 330,-140.991 330,-140.991"/>
<polygon fill="#000000" stroke="#000000" points="326.5001,-140.9909 330,-150.991 333.5001,-140.991 326.5001,-140.9909"/>
</g>
<!-- JsonLdComponent -->
<g id="node4" class="node">
<title>JsonLdComponent</title>
<polygon fill="#ffffb3" stroke="#000000" points="252.7744,-122 131.2256,-122 131.2256,-86 252.7744,-86 252.7744,-122"/>
<text text-anchor="middle" x="192" y="-99.8" font-family="Times,serif" font-size="14.00" fill="#000000">JsonLdComponent</text>
</g>
<!-- JsonLdComponent&#45;&gt;SharedModule -->
<g id="edge4" class="edge">
<title>JsonLdComponent&#45;&gt;SharedModule</title>
<path fill="none" stroke="#000000" d="M211.4624,-122.0091C211.4624,-138.0494 211.4624,-159 211.4624,-159 211.4624,-159 270.7592,-159 270.7592,-159"/>
<polygon fill="#000000" stroke="#000000" points="270.7592,-162.5001 280.7592,-159 270.7591,-155.5001 270.7592,-162.5001"/>
</g>
<!-- AppMenusComponent  -->
<g id="node7" class="node">
<title>AppMenusComponent </title>
<polygon fill="#fb8072" stroke="#000000" points="712.5428,-252 565.4572,-252 565.4572,-216 712.5428,-216 712.5428,-252"/>
<text text-anchor="middle" x="639" y="-229.8" font-family="Times,serif" font-size="14.00" fill="#000000">AppMenusComponent </text>
</g>
<!-- SharedModule&#45;&gt;AppMenusComponent  -->
<g id="edge6" class="edge">
<title>SharedModule&#45;&gt;AppMenusComponent </title>
<path fill="none" stroke="#000000" stroke-dasharray="5,2" d="M379.3106,-173C459.9698,-173 611.2429,-173 611.2429,-173 611.2429,-173 611.2429,-205.698 611.2429,-205.698"/>
<polygon fill="#000000" stroke="#000000" points="607.743,-205.698 611.2429,-215.698 614.743,-205.698 607.743,-205.698"/>
</g>
<!-- CollectionsFilterPipe  -->
<g id="node8" class="node">
<title>CollectionsFilterPipe </title>
<polygon fill="#fb8072" stroke="#000000" points="547.4911,-252 408.5089,-252 408.5089,-216 547.4911,-216 547.4911,-252"/>
<text text-anchor="middle" x="478" y="-229.8" font-family="Times,serif" font-size="14.00" fill="#000000">CollectionsFilterPipe </text>
</g>
<!-- SharedModule&#45;&gt;CollectionsFilterPipe  -->
<g id="edge7" class="edge">
<title>SharedModule&#45;&gt;CollectionsFilterPipe </title>
<path fill="none" stroke="#000000" stroke-dasharray="5,2" d="M379.3207,-180C413.5407,-180 453.0016,-180 453.0016,-180 453.0016,-180 453.0016,-205.7181 453.0016,-205.7181"/>
<polygon fill="#000000" stroke="#000000" points="449.5017,-205.718 453.0016,-215.7181 456.5017,-205.7181 449.5017,-205.718"/>
</g>
<!-- FooterComponent  -->
<g id="node9" class="node">
<title>FooterComponent </title>
<polygon fill="#fb8072" stroke="#000000" points="390.8814,-252 269.1186,-252 269.1186,-216 390.8814,-216 390.8814,-252"/>
<text text-anchor="middle" x="330" y="-229.8" font-family="Times,serif" font-size="14.00" fill="#000000">FooterComponent </text>
</g>
<!-- SharedModule&#45;&gt;FooterComponent  -->
<g id="edge8" class="edge">
<title>SharedModule&#45;&gt;FooterComponent </title>
<path fill="none" stroke="#000000" stroke-dasharray="5,2" d="M330,-187.1061C330,-187.1061 330,-205.991 330,-205.991"/>
<polygon fill="#000000" stroke="#000000" points="326.5001,-205.9909 330,-215.991 333.5001,-205.991 326.5001,-205.9909"/>
</g>
<!-- JsonLdComponent  -->
<g id="node10" class="node">
<title>JsonLdComponent </title>
<polygon fill="#fb8072" stroke="#000000" points="251.7745,-252 126.2255,-252 126.2255,-216 251.7745,-216 251.7745,-252"/>
<text text-anchor="middle" x="189" y="-229.8" font-family="Times,serif" font-size="14.00" fill="#000000">JsonLdComponent </text>
</g>
<!-- SharedModule&#45;&gt;JsonLdComponent  -->
<g id="edge9" class="edge">
<title>SharedModule&#45;&gt;JsonLdComponent </title>
<path fill="none" stroke="#000000" stroke-dasharray="5,2" d="M280.6524,-180C234.062,-180 171.2876,-180 171.2876,-180 171.2876,-180 171.2876,-205.7181 171.2876,-205.7181"/>
<polygon fill="#000000" stroke="#000000" points="167.7877,-205.718 171.2876,-215.7181 174.7877,-205.7181 167.7877,-205.718"/>
</g>
<!-- SvgModule  -->
<g id="node11" class="node">
<title>SvgModule </title>
<polygon fill="#fb8072" stroke="#000000" points="108.3326,-252 23.6674,-252 23.6674,-216 108.3326,-216 108.3326,-252"/>
<text text-anchor="middle" x="66" y="-229.8" font-family="Times,serif" font-size="14.00" fill="#000000">SvgModule </text>
</g>
<!-- SharedModule&#45;&gt;SvgModule  -->
<g id="edge10" class="edge">
<title>SharedModule&#45;&gt;SvgModule </title>
<path fill="none" stroke="#000000" stroke-dasharray="5,2" d="M280.5202,-173C207.533,-173 79.5554,-173 79.5554,-173 79.5554,-173 79.5554,-205.698 79.5554,-205.698"/>
<polygon fill="#000000" stroke="#000000" points="76.0555,-205.698 79.5554,-215.698 83.0555,-205.698 76.0555,-205.698"/>
</g>
<!-- SvgModule -->
<g id="node6" class="node">
<title>SvgModule</title>
<polygon fill="#8dd3c7" stroke="#000000" points="106.8331,-122 103.8331,-126 82.8331,-126 79.8331,-122 25.1669,-122 25.1669,-86 106.8331,-86 106.8331,-122"/>
<text text-anchor="middle" x="66" y="-99.8" font-family="Times,serif" font-size="14.00" fill="#000000">SvgModule</text>
</g>
<!-- SvgModule&#45;&gt;SharedModule -->
<g id="edge5" class="edge">
<title>SvgModule&#45;&gt;SharedModule</title>
<path fill="none" stroke="#000000" d="M52.4446,-122.2667C52.4446,-140.5552 52.4446,-166 52.4446,-166 52.4446,-166 270.6985,-166 270.6985,-166"/>
<polygon fill="#000000" stroke="#000000" points="270.6985,-169.5001 280.6985,-166 270.6984,-162.5001 270.6985,-169.5001"/>
</g>
</g>
</svg>
