<?xml version="1.0" encoding="UTF-8" standalone="no"?>
<!DOCTYPE svg PUBLIC "-//W3C//DTD SVG 1.1//EN"
 "http://www.w3.org/Graphics/SVG/1.1/DTD/svg11.dtd">
<!-- Generated by graphviz version 2.40.1 (20161225.0304)
 -->
<!-- Title: dependencies Pages: 1 -->
<svg width="2171pt" height="211pt"
 viewBox="0.00 0.00 2171.00 211.00" xmlns="http://www.w3.org/2000/svg" xmlns:xlink="http://www.w3.org/1999/xlink">
<g id="graph0" class="graph" transform="scale(1 1) rotate(0) translate(4 207)">
<title>dependencies</title>
<polygon fill="#ffffff" stroke="transparent" points="-4,4 -4,-207 2167,-207 2167,4 -4,4"/>
<text text-anchor="start" x="1060.5091" y="-42.4" font-family="sans-serif" font-weight="bold" font-size="14.00" fill="#000000">Legend</text>
<polygon fill="#ffffb3" stroke="transparent" points="847.5,-10 847.5,-30 867.5,-30 867.5,-10 847.5,-10"/>
<text text-anchor="start" x="871.129" y="-15.4" font-family="sans-serif" font-size="14.00" fill="#000000"> &#160;Declarations</text>
<polygon fill="#8dd3c7" stroke="transparent" points="960.5,-10 960.5,-30 980.5,-30 980.5,-10 960.5,-10"/>
<text text-anchor="start" x="984.2251" y="-15.4" font-family="sans-serif" font-size="14.00" fill="#000000"> &#160;Module</text>
<polygon fill="#80b1d3" stroke="transparent" points="1046.5,-10 1046.5,-30 1066.5,-30 1066.5,-10 1046.5,-10"/>
<text text-anchor="start" x="1070.2812" y="-15.4" font-family="sans-serif" font-size="14.00" fill="#000000"> &#160;Bootstrap</text>
<polygon fill="#fdb462" stroke="transparent" points="1143.5,-10 1143.5,-30 1163.5,-30 1163.5,-10 1143.5,-10"/>
<text text-anchor="start" x="1167.1732" y="-15.4" font-family="sans-serif" font-size="14.00" fill="#000000"> &#160;Providers</text>
<polygon fill="#fb8072" stroke="transparent" points="1239.5,-10 1239.5,-30 1259.5,-30 1259.5,-10 1239.5,-10"/>
<text text-anchor="start" x="1263.2258" y="-15.4" font-family="sans-serif" font-size="14.00" fill="#000000"> &#160;Exports</text>
<g id="clust1" class="cluster">
<title>cluster_ListModule</title>
<polygon fill="none" stroke="#000000" stroke-dasharray="1,5" points="8,-70 8,-195 2155,-195 2155,-70 8,-70"/>
</g>
<g id="clust2" class="cluster">
<title>cluster_ListModule_declarations</title>
<polygon fill="none" stroke="#000000" points="282,-78 282,-130 2147,-130 2147,-78 282,-78"/>
</g>
<g id="clust14" class="cluster">
<title>cluster_ListModule_imports</title>
<polygon fill="none" stroke="#000000" points="16,-78 16,-130 274,-130 274,-78 16,-78"/>
</g>
<!-- AreaBannerComponent -->
<g id="node1" class="node">
<title>AreaBannerComponent</title>
<polygon fill="#ffffb3" stroke="#000000" points="2139.4552,-122 1990.5448,-122 1990.5448,-86 2139.4552,-86 2139.4552,-122"/>
<text text-anchor="middle" x="2065" y="-99.8" font-family="Times,serif" font-size="14.00" fill="#000000">AreaBannerComponent</text>
</g>
<!-- ListModule -->
<g id="node12" class="node">
<title>ListModule</title>
<polygon fill="#8dd3c7" stroke="#000000" points="1037.8289,-187 1034.8289,-191 1013.8289,-191 1010.8289,-187 956.1711,-187 956.1711,-151 1037.8289,-151 1037.8289,-187"/>
<text text-anchor="middle" x="997" y="-164.8" font-family="Times,serif" font-size="14.00" fill="#000000">ListModule</text>
</g>
<!-- AreaBannerComponent&#45;&gt;ListModule -->
<g id="edge1" class="edge">
<title>AreaBannerComponent&#45;&gt;ListModule</title>
<path fill="none" stroke="#000000" d="M2065,-122.0908C2065,-145.1328 2065,-182 2065,-182 2065,-182 1047.887,-182 1047.887,-182"/>
<polygon fill="#000000" stroke="#000000" points="1047.887,-178.5001 1037.887,-182 1047.887,-185.5001 1047.887,-178.5001"/>
</g>
<!-- AreaFiltersComponent -->
<g id="node2" class="node">
<title>AreaFiltersComponent</title>
<polygon fill="#ffffb3" stroke="#000000" points="1972.3033,-122 1827.6967,-122 1827.6967,-86 1972.3033,-86 1972.3033,-122"/>
<text text-anchor="middle" x="1900" y="-99.8" font-family="Times,serif" font-size="14.00" fill="#000000">AreaFiltersComponent</text>
</g>
<!-- AreaFiltersComponent&#45;&gt;ListModule -->
<g id="edge2" class="edge">
<title>AreaFiltersComponent&#45;&gt;ListModule</title>
<path fill="none" stroke="#000000" d="M1900,-122.0449C1900,-143.6623 1900,-177 1900,-177 1900,-177 1047.8499,-177 1047.8499,-177"/>
<polygon fill="#000000" stroke="#000000" points="1047.8499,-173.5001 1037.8499,-177 1047.8499,-180.5001 1047.8499,-173.5001"/>
</g>
<!-- AreaOptionsComponent -->
<g id="node3" class="node">
<title>AreaOptionsComponent</title>
<polygon fill="#ffffb3" stroke="#000000" points="1809.3613,-122 1656.6387,-122 1656.6387,-86 1809.3613,-86 1809.3613,-122"/>
<text text-anchor="middle" x="1733" y="-99.8" font-family="Times,serif" font-size="14.00" fill="#000000">AreaOptionsComponent</text>
</g>
<!-- AreaOptionsComponent&#45;&gt;ListModule -->
<g id="edge3" class="edge">
<title>AreaOptionsComponent&#45;&gt;ListModule</title>
<path fill="none" stroke="#000000" d="M1733,-122.2228C1733,-142.3652 1733,-172 1733,-172 1733,-172 1047.8829,-172 1047.8829,-172"/>
<polygon fill="#000000" stroke="#000000" points="1047.8829,-168.5001 1037.8829,-172 1047.8829,-175.5001 1047.8829,-168.5001"/>
</g>
<!-- CollectionGridComponent -->
<g id="node4" class="node">
<title>CollectionGridComponent</title>
<polygon fill="#ffffb3" stroke="#000000" points="1638.8187,-122 1473.1813,-122 1473.1813,-86 1638.8187,-86 1638.8187,-122"/>
<text text-anchor="middle" x="1556" y="-99.8" font-family="Times,serif" font-size="14.00" fill="#000000">CollectionGridComponent</text>
</g>
<!-- CollectionGridComponent&#45;&gt;ListModule -->
<g id="edge4" class="edge">
<title>CollectionGridComponent&#45;&gt;ListModule</title>
<path fill="none" stroke="#000000" d="M1556,-122.2222C1556,-140.8285 1556,-167 1556,-167 1556,-167 1048.1046,-167 1048.1046,-167"/>
<polygon fill="#000000" stroke="#000000" points="1048.1046,-163.5001 1038.1046,-167 1048.1046,-170.5001 1048.1046,-163.5001"/>
</g>
<!-- CollectionRowsComponent -->
<g id="node5" class="node">
<title>CollectionRowsComponent</title>
<polygon fill="#ffffb3" stroke="#000000" points="1455.549,-122 1284.451,-122 1284.451,-86 1455.549,-86 1455.549,-122"/>
<text text-anchor="middle" x="1370" y="-99.8" font-family="Times,serif" font-size="14.00" fill="#000000">CollectionRowsComponent</text>
</g>
<!-- CollectionRowsComponent&#45;&gt;ListModule -->
<g id="edge5" class="edge">
<title>CollectionRowsComponent&#45;&gt;ListModule</title>
<path fill="none" stroke="#000000" d="M1370,-122.0336C1370,-139.0597 1370,-162 1370,-162 1370,-162 1047.9845,-162 1047.9845,-162"/>
<polygon fill="#000000" stroke="#000000" points="1047.9845,-158.5001 1037.9845,-162 1047.9845,-165.5001 1047.9845,-158.5001"/>
</g>
<!-- CollectionViewComponent -->
<g id="node6" class="node">
<title>CollectionViewComponent</title>
<polygon fill="#ffffb3" stroke="#000000" points="1265.979,-122 1096.021,-122 1096.021,-86 1265.979,-86 1265.979,-122"/>
<text text-anchor="middle" x="1181" y="-99.8" font-family="Times,serif" font-size="14.00" fill="#000000">CollectionViewComponent</text>
</g>
<!-- CollectionViewComponent&#45;&gt;ListModule -->
<g id="edge6" class="edge">
<title>CollectionViewComponent&#45;&gt;ListModule</title>
<path fill="none" stroke="#000000" d="M1181,-122.2396C1181,-137.5706 1181,-157 1181,-157 1181,-157 1047.8356,-157 1047.8356,-157"/>
<polygon fill="#000000" stroke="#000000" points="1047.8356,-153.5001 1037.8356,-157 1047.8355,-160.5001 1047.8356,-153.5001"/>
</g>
<!-- GroupOptionsComponent -->
<g id="node7" class="node">
<title>GroupOptionsComponent</title>
<polygon fill="#ffffb3" stroke="#000000" points="1077.9326,-122 916.0674,-122 916.0674,-86 1077.9326,-86 1077.9326,-122"/>
<text text-anchor="middle" x="997" y="-99.8" font-family="Times,serif" font-size="14.00" fill="#000000">GroupOptionsComponent</text>
</g>
<!-- GroupOptionsComponent&#45;&gt;ListModule -->
<g id="edge7" class="edge">
<title>GroupOptionsComponent&#45;&gt;ListModule</title>
<path fill="none" stroke="#000000" d="M997,-122.1061C997,-122.1061 997,-140.991 997,-140.991"/>
<polygon fill="#000000" stroke="#000000" points="993.5001,-140.9909 997,-150.991 1000.5001,-140.991 993.5001,-140.9909"/>
</g>
<!-- SubjectOptionsComponent -->
<g id="node8" class="node">
<title>SubjectOptionsComponent</title>
<polygon fill="#ffffb3" stroke="#000000" points="897.6581,-122 730.3419,-122 730.3419,-86 897.6581,-86 897.6581,-122"/>
<text text-anchor="middle" x="814" y="-99.8" font-family="Times,serif" font-size="14.00" fill="#000000">SubjectOptionsComponent</text>
</g>
<!-- SubjectOptionsComponent&#45;&gt;ListModule -->
<g id="edge8" class="edge">
<title>SubjectOptionsComponent&#45;&gt;ListModule</title>
<path fill="none" stroke="#000000" d="M814,-122.2396C814,-137.5706 814,-157 814,-157 814,-157 945.9312,-157 945.9312,-157"/>
<polygon fill="#000000" stroke="#000000" points="945.9313,-160.5001 955.9312,-157 945.9312,-153.5001 945.9313,-160.5001"/>
</g>
<!-- TypesComponent -->
<g id="node9" class="node">
<title>TypesComponent</title>
<polygon fill="#ffffb3" stroke="#000000" points="711.5451,-122 596.4549,-122 596.4549,-86 711.5451,-86 711.5451,-122"/>
<text text-anchor="middle" x="654" y="-99.8" font-family="Times,serif" font-size="14.00" fill="#000000">TypesComponent</text>
</g>
<!-- TypesComponent&#45;&gt;ListModule -->
<g id="edge9" class="edge">
<title>TypesComponent&#45;&gt;ListModule</title>
<path fill="none" stroke="#000000" d="M654,-122.0336C654,-139.0597 654,-162 654,-162 654,-162 946.3065,-162 946.3065,-162"/>
<polygon fill="#000000" stroke="#000000" points="946.3065,-165.5001 956.3065,-162 946.3064,-158.5001 946.3065,-165.5001"/>
</g>
<!-- ViewGridComponent -->
<g id="node10" class="node">
<title>ViewGridComponent</title>
<polygon fill="#ffffb3" stroke="#000000" points="578.8089,-122 441.1911,-122 441.1911,-86 578.8089,-86 578.8089,-122"/>
<text text-anchor="middle" x="510" y="-99.8" font-family="Times,serif" font-size="14.00" fill="#000000">ViewGridComponent</text>
</g>
<!-- ViewGridComponent&#45;&gt;ListModule -->
<g id="edge10" class="edge">
<title>ViewGridComponent&#45;&gt;ListModule</title>
<path fill="none" stroke="#000000" d="M510,-122.2222C510,-140.8285 510,-167 510,-167 510,-167 946.3163,-167 946.3163,-167"/>
<polygon fill="#000000" stroke="#000000" points="946.3163,-170.5001 956.3163,-167 946.3163,-163.5001 946.3163,-170.5001"/>
</g>
<!-- ViewListComponent -->
<g id="node11" class="node">
<title>ViewListComponent</title>
<polygon fill="#ffffb3" stroke="#000000" points="423.9299,-122 290.0701,-122 290.0701,-86 423.9299,-86 423.9299,-122"/>
<text text-anchor="middle" x="357" y="-99.8" font-family="Times,serif" font-size="14.00" fill="#000000">ViewListComponent</text>
</g>
<!-- ViewListComponent&#45;&gt;ListModule -->
<g id="edge11" class="edge">
<title>ViewListComponent&#45;&gt;ListModule</title>
<path fill="none" stroke="#000000" d="M357,-122.2228C357,-142.3652 357,-172 357,-172 357,-172 945.9915,-172 945.9915,-172"/>
<polygon fill="#000000" stroke="#000000" points="945.9916,-175.5001 955.9915,-172 945.9915,-168.5001 945.9916,-175.5001"/>
</g>
<!-- ListRoutingModule -->
<g id="node13" class="node">
<title>ListRoutingModule</title>
<polygon fill="#8dd3c7" stroke="#000000" points="266.4468,-122 263.4468,-126 242.4468,-126 239.4468,-122 139.5532,-122 139.5532,-86 266.4468,-86 266.4468,-122"/>
<text text-anchor="middle" x="203" y="-99.8" font-family="Times,serif" font-size="14.00" fill="#000000">ListRoutingModule</text>
</g>
<!-- ListRoutingModule&#45;&gt;ListModule -->
<g id="edge12" class="edge">
<title>ListRoutingModule&#45;&gt;ListModule</title>
<path fill="none" stroke="#000000" d="M203,-122.0449C203,-143.6623 203,-177 203,-177 203,-177 946.2589,-177 946.2589,-177"/>
<polygon fill="#000000" stroke="#000000" points="946.2589,-180.5001 956.2589,-177 946.2588,-173.5001 946.2589,-180.5001"/>
</g>
<!-- SharedModule -->
<g id="node14" class="node">
<title>SharedModule</title>
<polygon fill="#8dd3c7" stroke="#000000" points="122.4231,-122 119.4231,-126 98.4231,-126 95.4231,-122 23.5769,-122 23.5769,-86 122.4231,-86 122.4231,-122"/>
<text text-anchor="middle" x="73" y="-99.8" font-family="Times,serif" font-size="14.00" fill="#000000">SharedModule</text>
</g>
<!-- SharedModule&#45;&gt;ListModule -->
<g id="edge13" class="edge">
<title>SharedModule&#45;&gt;ListModule</title>
<path fill="none" stroke="#000000" d="M73,-122.0908C73,-145.1328 73,-182 73,-182 73,-182 946.1046,-182 946.1046,-182"/>
<polygon fill="#000000" stroke="#000000" points="946.1047,-185.5001 956.1046,-182 946.1046,-178.5001 946.1047,-185.5001"/>
</g>
</g>
</svg>
