<?xml version="1.0" encoding="UTF-8" standalone="no"?>
<!DOCTYPE svg PUBLIC "-//W3C//DTD SVG 1.1//EN"
 "http://www.w3.org/Graphics/SVG/1.1/DTD/svg11.dtd">
<!-- Generated by graphviz version 2.40.1 (20161225.0304)
 -->
<!-- Title: dependencies Pages: 1 -->
<svg width="1469pt" height="284pt"
 viewBox="0.00 0.00 1469.00 284.00" xmlns="http://www.w3.org/2000/svg" xmlns:xlink="http://www.w3.org/1999/xlink">
<g id="graph0" class="graph" transform="scale(1 1) rotate(0) translate(4 280)">
<title>dependencies</title>
<polygon fill="#ffffff" stroke="transparent" points="-4,4 -4,-280 1465,-280 1465,4 -4,4"/>
<text text-anchor="start" x="709.5091" y="-42.4" font-family="sans-serif" font-weight="bold" font-size="14.00" fill="#000000">Legend</text>
<polygon fill="#ffffb3" stroke="transparent" points="496.5,-10 496.5,-30 516.5,-30 516.5,-10 496.5,-10"/>
<text text-anchor="start" x="520.129" y="-15.4" font-family="sans-serif" font-size="14.00" fill="#000000"> &#160;Declarations</text>
<polygon fill="#8dd3c7" stroke="transparent" points="609.5,-10 609.5,-30 629.5,-30 629.5,-10 609.5,-10"/>
<text text-anchor="start" x="633.2251" y="-15.4" font-family="sans-serif" font-size="14.00" fill="#000000"> &#160;Module</text>
<polygon fill="#80b1d3" stroke="transparent" points="695.5,-10 695.5,-30 715.5,-30 715.5,-10 695.5,-10"/>
<text text-anchor="start" x="719.2812" y="-15.4" font-family="sans-serif" font-size="14.00" fill="#000000"> &#160;Bootstrap</text>
<polygon fill="#fdb462" stroke="transparent" points="792.5,-10 792.5,-30 812.5,-30 812.5,-10 792.5,-10"/>
<text text-anchor="start" x="816.1732" y="-15.4" font-family="sans-serif" font-size="14.00" fill="#000000"> &#160;Providers</text>
<polygon fill="#fb8072" stroke="transparent" points="888.5,-10 888.5,-30 908.5,-30 908.5,-10 888.5,-10"/>
<text text-anchor="start" x="912.2258" y="-15.4" font-family="sans-serif" font-size="14.00" fill="#000000"> &#160;Exports</text>
<g id="clust1" class="cluster">
<title>cluster_ItemModule</title>
<polygon fill="none" stroke="#000000" stroke-dasharray="1,5" points="8,-70 8,-268 1453,-268 1453,-70 8,-70"/>
</g>
<g id="clust2" class="cluster">
<title>cluster_ItemModule_declarations</title>
<polygon fill="none" stroke="#000000" points="286,-78 286,-130 1445,-130 1445,-78 286,-78"/>
</g>
<g id="clust10" class="cluster">
<title>cluster_ItemModule_imports</title>
<polygon fill="none" stroke="#000000" points="16,-78 16,-130 278,-130 278,-78 16,-78"/>
</g>
<g id="clust11" class="cluster">
<title>cluster_ItemModule_exports</title>
<polygon fill="none" stroke="#000000" points="621,-208 621,-260 771,-260 771,-208 621,-208"/>
</g>
<!-- ItemComponent -->
<g id="node1" class="node">
<title>ItemComponent</title>
<polygon fill="#ffffb3" stroke="#000000" points="1437.4888,-122 1330.5112,-122 1330.5112,-86 1437.4888,-86 1437.4888,-122"/>
<text text-anchor="middle" x="1384" y="-99.8" font-family="Times,serif" font-size="14.00" fill="#000000">ItemComponent</text>
</g>
<!-- ItemModule -->
<g id="node8" class="node">
<title>ItemModule</title>
<polygon fill="#8dd3c7" stroke="#000000" points="738.7065,-187 735.7065,-191 714.7065,-191 711.7065,-187 653.2935,-187 653.2935,-151 738.7065,-151 738.7065,-187"/>
<text text-anchor="middle" x="696" y="-164.8" font-family="Times,serif" font-size="14.00" fill="#000000">ItemModule</text>
</g>
<!-- ItemComponent&#45;&gt;ItemModule -->
<g id="edge1" class="edge">
<title>ItemComponent&#45;&gt;ItemModule</title>
<path fill="none" stroke="#000000" d="M1384,-122.0109C1384,-144.4852 1384,-180 1384,-180 1384,-180 748.7775,-180 748.7775,-180"/>
<polygon fill="#000000" stroke="#000000" points="748.7776,-176.5001 738.7775,-180 748.7775,-183.5001 748.7776,-176.5001"/>
</g>
<!-- ItemContainerComponent -->
<g id="node2" class="node">
<title>ItemContainerComponent</title>
<polygon fill="#ffffb3" stroke="#000000" points="1312.1965,-122 1149.8035,-122 1149.8035,-86 1312.1965,-86 1312.1965,-122"/>
<text text-anchor="middle" x="1231" y="-99.8" font-family="Times,serif" font-size="14.00" fill="#000000">ItemContainerComponent</text>
</g>
<!-- ItemContainerComponent&#45;&gt;ItemModule -->
<g id="edge2" class="edge">
<title>ItemContainerComponent&#45;&gt;ItemModule</title>
<path fill="none" stroke="#000000" d="M1231,-122.1289C1231,-142.5724 1231,-173 1231,-173 1231,-173 748.8769,-173 748.8769,-173"/>
<polygon fill="#000000" stroke="#000000" points="748.877,-169.5001 738.8769,-173 748.8769,-176.5001 748.877,-169.5001"/>
</g>
<!-- ItemHeaderComponent -->
<g id="node3" class="node">
<title>ItemHeaderComponent</title>
<polygon fill="#ffffb3" stroke="#000000" points="1131.9003,-122 984.0997,-122 984.0997,-86 1131.9003,-86 1131.9003,-122"/>
<text text-anchor="middle" x="1058" y="-99.8" font-family="Times,serif" font-size="14.00" fill="#000000">ItemHeaderComponent</text>
</g>
<!-- ItemHeaderComponent&#45;&gt;ItemModule -->
<g id="edge3" class="edge">
<title>ItemHeaderComponent&#45;&gt;ItemModule</title>
<path fill="none" stroke="#000000" d="M1058,-122.2667C1058,-140.5552 1058,-166 1058,-166 1058,-166 748.9477,-166 748.9477,-166"/>
<polygon fill="#000000" stroke="#000000" points="748.9477,-162.5001 738.9477,-166 748.9477,-169.5001 748.9477,-162.5001"/>
</g>
<!-- ItemHeaderImageComponent -->
<g id="node4" class="node">
<title>ItemHeaderImageComponent</title>
<polygon fill="#ffffb3" stroke="#000000" points="966.3806,-122 783.6194,-122 783.6194,-86 966.3806,-86 966.3806,-122"/>
<text text-anchor="middle" x="875" y="-99.8" font-family="Times,serif" font-size="14.00" fill="#000000">ItemHeaderImageComponent</text>
</g>
<!-- ItemHeaderImageComponent&#45;&gt;ItemModule -->
<g id="edge4" class="edge">
<title>ItemHeaderImageComponent&#45;&gt;ItemModule</title>
<path fill="none" stroke="#000000" d="M875,-122.0091C875,-138.0494 875,-159 875,-159 875,-159 748.875,-159 748.875,-159"/>
<polygon fill="#000000" stroke="#000000" points="748.875,-155.5001 738.875,-159 748.8749,-162.5001 748.875,-155.5001"/>
</g>
<!-- ItemLinksComponent -->
<g id="node5" class="node">
<title>ItemLinksComponent</title>
<polygon fill="#ffffb3" stroke="#000000" points="765.3767,-122 626.6233,-122 626.6233,-86 765.3767,-86 765.3767,-122"/>
<text text-anchor="middle" x="696" y="-99.8" font-family="Times,serif" font-size="14.00" fill="#000000">ItemLinksComponent</text>
</g>
<!-- ItemLinksComponent&#45;&gt;ItemModule -->
<g id="edge5" class="edge">
<title>ItemLinksComponent&#45;&gt;ItemModule</title>
<path fill="none" stroke="#000000" d="M696,-122.1061C696,-122.1061 696,-140.991 696,-140.991"/>
<polygon fill="#000000" stroke="#000000" points="692.5001,-140.9909 696,-150.991 699.5001,-140.991 692.5001,-140.9909"/>
</g>
<!-- ItemSelectComponent -->
<g id="node6" class="node">
<title>ItemSelectComponent</title>
<polygon fill="#ffffb3" stroke="#000000" points="608.6965,-122 467.3035,-122 467.3035,-86 608.6965,-86 608.6965,-122"/>
<text text-anchor="middle" x="538" y="-99.8" font-family="Times,serif" font-size="14.00" fill="#000000">ItemSelectComponent</text>
</g>
<!-- ItemSelectComponent&#45;&gt;ItemModule -->
<g id="edge6" class="edge">
<title>ItemSelectComponent&#45;&gt;ItemModule</title>
<path fill="none" stroke="#000000" d="M538,-122.0091C538,-138.0494 538,-159 538,-159 538,-159 643.2429,-159 643.2429,-159"/>
<polygon fill="#000000" stroke="#000000" points="643.243,-162.5001 653.2429,-159 643.2429,-155.5001 643.243,-162.5001"/>
</g>
<!-- RelatedItemsComponent -->
<g id="node7" class="node">
<title>RelatedItemsComponent</title>
<polygon fill="#ffffb3" stroke="#000000" points="449.6951,-122 294.3049,-122 294.3049,-86 449.6951,-86 449.6951,-122"/>
<text text-anchor="middle" x="372" y="-99.8" font-family="Times,serif" font-size="14.00" fill="#000000">RelatedItemsComponent</text>
</g>
<!-- RelatedItemsComponent&#45;&gt;ItemModule -->
<g id="edge7" class="edge">
<title>RelatedItemsComponent&#45;&gt;ItemModule</title>
<path fill="none" stroke="#000000" d="M372,-122.2667C372,-140.5552 372,-166 372,-166 372,-166 643.3095,-166 643.3095,-166"/>
<polygon fill="#000000" stroke="#000000" points="643.3095,-169.5001 653.3095,-166 643.3095,-162.5001 643.3095,-169.5001"/>
</g>
<!-- ItemRoutingModule  -->
<g id="node11" class="node">
<title>ItemRoutingModule </title>
<polygon fill="#fb8072" stroke="#000000" points="762.8241,-252 629.1759,-252 629.1759,-216 762.8241,-216 762.8241,-252"/>
<text text-anchor="middle" x="696" y="-229.8" font-family="Times,serif" font-size="14.00" fill="#000000">ItemRoutingModule </text>
</g>
<!-- ItemModule&#45;&gt;ItemRoutingModule  -->
<g id="edge10" class="edge">
<title>ItemModule&#45;&gt;ItemRoutingModule </title>
<path fill="none" stroke="#000000" stroke-dasharray="5,2" d="M696,-187.1061C696,-187.1061 696,-205.991 696,-205.991"/>
<polygon fill="#000000" stroke="#000000" points="692.5001,-205.9909 696,-215.991 699.5001,-205.991 692.5001,-205.9909"/>
</g>
<!-- ItemRoutingModule -->
<g id="node9" class="node">
<title>ItemRoutingModule</title>
<polygon fill="#8dd3c7" stroke="#000000" points="270.3244,-122 267.3244,-126 246.3244,-126 243.3244,-122 139.6756,-122 139.6756,-86 270.3244,-86 270.3244,-122"/>
<text text-anchor="middle" x="205" y="-99.8" font-family="Times,serif" font-size="14.00" fill="#000000">ItemRoutingModule</text>
</g>
<!-- ItemRoutingModule&#45;&gt;ItemModule -->
<g id="edge8" class="edge">
<title>ItemRoutingModule&#45;&gt;ItemModule</title>
<path fill="none" stroke="#000000" d="M205,-122.1289C205,-142.5724 205,-173 205,-173 205,-173 643.2859,-173 643.2859,-173"/>
<polygon fill="#000000" stroke="#000000" points="643.2859,-176.5001 653.2859,-173 643.2859,-169.5001 643.2859,-176.5001"/>
</g>
<!-- SharedModule -->
<g id="node10" class="node">
<title>SharedModule</title>
<polygon fill="#8dd3c7" stroke="#000000" points="122.4231,-122 119.4231,-126 98.4231,-126 95.4231,-122 23.5769,-122 23.5769,-86 122.4231,-86 122.4231,-122"/>
<text text-anchor="middle" x="73" y="-99.8" font-family="Times,serif" font-size="14.00" fill="#000000">SharedModule</text>
</g>
<!-- SharedModule&#45;&gt;ItemModule -->
<g id="edge9" class="edge">
<title>SharedModule&#45;&gt;ItemModule</title>
<path fill="none" stroke="#000000" d="M73,-122.0109C73,-144.4852 73,-180 73,-180 73,-180 643.1787,-180 643.1787,-180"/>
<polygon fill="#000000" stroke="#000000" points="643.1787,-183.5001 653.1787,-180 643.1787,-176.5001 643.1787,-183.5001"/>
</g>
</g>
</svg>
