<?xml version="1.0" encoding="UTF-8" standalone="no"?>
<!DOCTYPE svg PUBLIC "-//W3C//DTD SVG 1.1//EN"
 "http://www.w3.org/Graphics/SVG/1.1/DTD/svg11.dtd">
<!-- Generated by graphviz version 2.40.1 (20161225.0304)
 -->
<!-- Title: dependencies Pages: 1 -->
<svg width="672pt" height="349pt"
 viewBox="0.00 0.00 672.00 349.00" xmlns="http://www.w3.org/2000/svg" xmlns:xlink="http://www.w3.org/1999/xlink">
<g id="graph0" class="graph" transform="scale(1 1) rotate(0) translate(4 345)">
<title>dependencies</title>
<polygon fill="#ffffff" stroke="transparent" points="-4,4 -4,-345 668,-345 668,4 -4,4"/>
<text text-anchor="start" x="311.0091" y="-42.4" font-family="sans-serif" font-weight="bold" font-size="14.00" fill="#000000">Legend</text>
<polygon fill="#ffffb3" stroke="transparent" points="98,-10 98,-30 118,-30 118,-10 98,-10"/>
<text text-anchor="start" x="121.629" y="-15.4" font-family="sans-serif" font-size="14.00" fill="#000000"> &#160;Declarations</text>
<polygon fill="#8dd3c7" stroke="transparent" points="211,-10 211,-30 231,-30 231,-10 211,-10"/>
<text text-anchor="start" x="234.7251" y="-15.4" font-family="sans-serif" font-size="14.00" fill="#000000"> &#160;Module</text>
<polygon fill="#80b1d3" stroke="transparent" points="297,-10 297,-30 317,-30 317,-10 297,-10"/>
<text text-anchor="start" x="320.7812" y="-15.4" font-family="sans-serif" font-size="14.00" fill="#000000"> &#160;Bootstrap</text>
<polygon fill="#fdb462" stroke="transparent" points="394,-10 394,-30 414,-30 414,-10 394,-10"/>
<text text-anchor="start" x="417.6732" y="-15.4" font-family="sans-serif" font-size="14.00" fill="#000000"> &#160;Providers</text>
<polygon fill="#fb8072" stroke="transparent" points="490,-10 490,-30 510,-30 510,-10 490,-10"/>
<text text-anchor="start" x="513.7258" y="-15.4" font-family="sans-serif" font-size="14.00" fill="#000000"> &#160;Exports</text>
<g id="clust1" class="cluster">
<title>cluster_AppModule</title>
<polygon fill="none" stroke="#000000" stroke-dasharray="1,5" points="8,-70 8,-333 656,-333 656,-70 8,-70"/>
</g>
<g id="clust2" class="cluster">
<title>cluster_AppModule_declarations</title>
<polygon fill="none" stroke="#000000" points="458,-143 458,-195 580,-195 580,-143 458,-143"/>
</g>
<g id="clust3" class="cluster">
<title>cluster_AppModule_AppComponent_providers</title>
<polygon fill="none" stroke="#000000" points="16,-78 16,-130 648,-130 648,-78 16,-78"/>
</g>
<g id="clust4" class="cluster">
<title>cluster_AppModule_imports</title>
<polygon fill="none" stroke="#000000" points="84,-143 84,-195 450,-195 450,-143 84,-143"/>
</g>
<g id="clust6" class="cluster">
<title>cluster_AppModule_bootstrap</title>
<polygon fill="none" stroke="#000000" points="253,-273 253,-325 377,-325 377,-273 253,-273"/>
</g>
<!-- AppComponent -->
<g id="node1" class="node">
<title>AppComponent</title>
<polygon fill="#ffffb3" stroke="#000000" points="571.9399,-187 466.0601,-187 466.0601,-151 571.9399,-151 571.9399,-187"/>
<text text-anchor="middle" x="519" y="-164.8" font-family="Times,serif" font-size="14.00" fill="#000000">AppComponent</text>
</g>
<!-- AppModule -->
<g id="node2" class="node">
<title>AppModule</title>
<polygon fill="#8dd3c7" stroke="#000000" points="356.6571,-252 353.6571,-256 332.6571,-256 329.6571,-252 273.3429,-252 273.3429,-216 356.6571,-216 356.6571,-252"/>
<text text-anchor="middle" x="315" y="-229.8" font-family="Times,serif" font-size="14.00" fill="#000000">AppModule</text>
</g>
<!-- AppComponent&#45;&gt;AppModule -->
<g id="edge1" class="edge">
<title>AppComponent&#45;&gt;AppModule</title>
<path fill="none" stroke="#000000" d="M519,-187.1061C519,-206.3391 519,-234 519,-234 519,-234 366.7747,-234 366.7747,-234"/>
<polygon fill="#000000" stroke="#000000" points="366.7747,-230.5001 356.7747,-234 366.7747,-237.5001 366.7747,-230.5001"/>
</g>
<!-- AppComponent  -->
<g id="node8" class="node">
<title>AppComponent </title>
<polygon fill="#80b1d3" stroke="#000000" points="369.439,-317 260.561,-317 260.561,-281 369.439,-281 369.439,-317"/>
<text text-anchor="middle" x="315" y="-294.8" font-family="Times,serif" font-size="14.00" fill="#000000">AppComponent </text>
</g>
<!-- AppModule&#45;&gt;AppComponent  -->
<g id="edge7" class="edge">
<title>AppModule&#45;&gt;AppComponent </title>
<path fill="none" stroke="#000000" stroke-dasharray="1,5" d="M315,-252.1061C315,-252.1061 315,-270.991 315,-270.991"/>
<polygon fill="#000000" stroke="#000000" points="311.5001,-270.9909 315,-280.991 318.5001,-270.991 311.5001,-270.9909"/>
</g>
<!-- Location -->
<g id="node3" class="node">
<title>Location</title>
<ellipse fill="#fdb462" stroke="#000000" cx="595" cy="-104" rx="45.2247" ry="18"/>
<text text-anchor="middle" x="595" y="-99.8" font-family="Times,serif" font-size="14.00" fill="#000000">Location</text>
</g>
<!-- Location&#45;&gt;AppComponent -->
<g id="edge2" class="edge">
<title>Location&#45;&gt;AppComponent</title>
<path fill="none" stroke="#000000" d="M560.6787,-115.922C560.6787,-115.922 560.6787,-140.7669 560.6787,-140.7669"/>
<polygon fill="#000000" stroke="#000000" points="557.1788,-140.7669 560.6787,-150.7669 564.1788,-140.7669 557.1788,-140.7669"/>
</g>
<!-- { provide: LocationStrategy, useClass: PathLocationStrategy } -->
<g id="node4" class="node">
<title>{ provide: LocationStrategy, useClass: PathLocationStrategy }</title>
<ellipse fill="#fdb462" stroke="#000000" cx="278" cy="-104" rx="253.7592" ry="18"/>
<text text-anchor="middle" x="278" y="-99.8" font-family="Times,serif" font-size="14.00" fill="#000000">{ provide: LocationStrategy, useClass: PathLocationStrategy }</text>
</g>
<!-- { provide: LocationStrategy, useClass: PathLocationStrategy }&#45;&gt;AppComponent -->
<g id="edge3" class="edge">
<title>{ provide: LocationStrategy, useClass: PathLocationStrategy }&#45;&gt;AppComponent</title>
<path fill="none" stroke="#000000" d="M498.955,-113.038C498.955,-113.038 498.955,-140.9586 498.955,-140.9586"/>
<polygon fill="#000000" stroke="#000000" points="495.4551,-140.9586 498.955,-150.9586 502.4551,-140.9587 495.4551,-140.9586"/>
</g>
<!-- AppRoutingModule -->
<g id="node5" class="node">
<title>AppRoutingModule</title>
<polygon fill="#8dd3c7" stroke="#000000" points="442.2744,-187 439.2744,-191 418.2744,-191 415.2744,-187 313.7256,-187 313.7256,-151 442.2744,-151 442.2744,-187"/>
<text text-anchor="middle" x="378" y="-164.8" font-family="Times,serif" font-size="14.00" fill="#000000">AppRoutingModule</text>
</g>
<!-- AppRoutingModule&#45;&gt;AppModule -->
<g id="edge4" class="edge">
<title>AppRoutingModule&#45;&gt;AppModule</title>
<path fill="none" stroke="#000000" d="M335.2206,-187.1061C335.2206,-187.1061 335.2206,-205.991 335.2206,-205.991"/>
<polygon fill="#000000" stroke="#000000" points="331.7206,-205.9909 335.2206,-215.991 338.7206,-205.991 331.7206,-205.9909"/>
</g>
<!-- CoreModule -->
<g id="node6" class="node">
<title>CoreModule</title>
<polygon fill="#8dd3c7" stroke="#000000" points="295.2619,-187 292.2619,-191 271.2619,-191 268.2619,-187 208.7381,-187 208.7381,-151 295.2619,-151 295.2619,-187"/>
<text text-anchor="middle" x="252" y="-164.8" font-family="Times,serif" font-size="14.00" fill="#000000">CoreModule</text>
</g>
<!-- CoreModule&#45;&gt;AppModule -->
<g id="edge5" class="edge">
<title>CoreModule&#45;&gt;AppModule</title>
<path fill="none" stroke="#000000" d="M284.2763,-187.1061C284.2763,-187.1061 284.2763,-205.991 284.2763,-205.991"/>
<polygon fill="#000000" stroke="#000000" points="280.7764,-205.9909 284.2763,-215.991 287.7764,-205.991 280.7764,-205.9909"/>
</g>
<!-- SharedModule -->
<g id="node7" class="node">
<title>SharedModule</title>
<polygon fill="#8dd3c7" stroke="#000000" points="190.4231,-187 187.4231,-191 166.4231,-191 163.4231,-187 91.5769,-187 91.5769,-151 190.4231,-151 190.4231,-187"/>
<text text-anchor="middle" x="141" y="-164.8" font-family="Times,serif" font-size="14.00" fill="#000000">SharedModule</text>
</g>
<!-- SharedModule&#45;&gt;AppModule -->
<g id="edge6" class="edge">
<title>SharedModule&#45;&gt;AppModule</title>
<path fill="none" stroke="#000000" d="M141,-187.1061C141,-206.3391 141,-234 141,-234 141,-234 263.3227,-234 263.3227,-234"/>
<polygon fill="#000000" stroke="#000000" points="263.3227,-237.5001 273.3227,-234 263.3226,-230.5001 263.3227,-237.5001"/>
</g>
</g>
</svg>
