<?xml version="1.0" encoding="UTF-8" standalone="no"?>
<!DOCTYPE svg PUBLIC "-//W3C//DTD SVG 1.1//EN"
 "http://www.w3.org/Graphics/SVG/1.1/DTD/svg11.dtd">
<!-- Generated by graphviz version 2.40.1 (20161225.0304)
 -->
<!-- Title: dependencies Pages: 1 -->
<svg width="536pt" height="349pt"
 viewBox="0.00 0.00 536.00 349.00" xmlns="http://www.w3.org/2000/svg" xmlns:xlink="http://www.w3.org/1999/xlink">
<g id="graph0" class="graph" transform="scale(1 1) rotate(0) translate(4 345)">
<title>dependencies</title>
<polygon fill="#ffffff" stroke="transparent" points="-4,4 -4,-345 532,-345 532,4 -4,4"/>
<text text-anchor="start" x="243.0091" y="-42.4" font-family="sans-serif" font-weight="bold" font-size="14.00" fill="#000000">Legend</text>
<polygon fill="#ffffb3" stroke="transparent" points="30,-10 30,-30 50,-30 50,-10 30,-10"/>
<text text-anchor="start" x="53.629" y="-15.4" font-family="sans-serif" font-size="14.00" fill="#000000"> &#160;Declarations</text>
<polygon fill="#8dd3c7" stroke="transparent" points="143,-10 143,-30 163,-30 163,-10 143,-10"/>
<text text-anchor="start" x="166.7251" y="-15.4" font-family="sans-serif" font-size="14.00" fill="#000000"> &#160;Module</text>
<polygon fill="#80b1d3" stroke="transparent" points="229,-10 229,-30 249,-30 249,-10 229,-10"/>
<text text-anchor="start" x="252.7812" y="-15.4" font-family="sans-serif" font-size="14.00" fill="#000000"> &#160;Bootstrap</text>
<polygon fill="#fdb462" stroke="transparent" points="326,-10 326,-30 346,-30 346,-10 326,-10"/>
<text text-anchor="start" x="349.6732" y="-15.4" font-family="sans-serif" font-size="14.00" fill="#000000"> &#160;Providers</text>
<polygon fill="#fb8072" stroke="transparent" points="422,-10 422,-30 442,-30 442,-10 422,-10"/>
<text text-anchor="start" x="445.7258" y="-15.4" font-family="sans-serif" font-size="14.00" fill="#000000"> &#160;Exports</text>
<g id="clust1" class="cluster">
<title>cluster_AppModule</title>
<polygon fill="none" stroke="#000000" stroke-dasharray="1,5" points="8,-70 8,-333 520,-333 520,-70 8,-70"/>
</g>
<g id="clust2" class="cluster">
<title>cluster_AppModule_declarations</title>
<polygon fill="none" stroke="#000000" points="390,-143 390,-195 512,-195 512,-143 390,-143"/>
</g>
<g id="clust3" class="cluster">
<title>cluster_AppModule_AppComponent_providers</title>
<polygon fill="none" stroke="#000000" points="303,-78 303,-130 508,-130 508,-78 303,-78"/>
</g>
<g id="clust4" class="cluster">
<title>cluster_AppModule_imports</title>
<polygon fill="none" stroke="#000000" points="16,-143 16,-195 382,-195 382,-143 16,-143"/>
</g>
<g id="clust6" class="cluster">
<title>cluster_AppModule_bootstrap</title>
<polygon fill="none" stroke="#000000" points="185,-273 185,-325 309,-325 309,-273 185,-273"/>
</g>
<!-- AppComponent -->
<g id="node1" class="node">
<title>AppComponent</title>
<polygon fill="#ffffb3" stroke="#000000" points="503.9399,-187 398.0601,-187 398.0601,-151 503.9399,-151 503.9399,-187"/>
<text text-anchor="middle" x="451" y="-164.8" font-family="Times,serif" font-size="14.00" fill="#000000">AppComponent</text>
</g>
<!-- AppModule -->
<g id="node2" class="node">
<title>AppModule</title>
<polygon fill="#8dd3c7" stroke="#000000" points="288.6571,-252 285.6571,-256 264.6571,-256 261.6571,-252 205.3429,-252 205.3429,-216 288.6571,-216 288.6571,-252"/>
<text text-anchor="middle" x="247" y="-229.8" font-family="Times,serif" font-size="14.00" fill="#000000">AppModule</text>
</g>
<!-- AppComponent&#45;&gt;AppModule -->
<g id="edge1" class="edge">
<title>AppComponent&#45;&gt;AppModule</title>
<path fill="none" stroke="#000000" d="M451,-187.1061C451,-206.3391 451,-234 451,-234 451,-234 298.7747,-234 298.7747,-234"/>
<polygon fill="#000000" stroke="#000000" points="298.7747,-230.5001 288.7747,-234 298.7747,-237.5001 298.7747,-230.5001"/>
</g>
<!-- AppComponent  -->
<g id="node8" class="node">
<title>AppComponent </title>
<polygon fill="#80b1d3" stroke="#000000" points="301.439,-317 192.561,-317 192.561,-281 301.439,-281 301.439,-317"/>
<text text-anchor="middle" x="247" y="-294.8" font-family="Times,serif" font-size="14.00" fill="#000000">AppComponent </text>
</g>
<!-- AppModule&#45;&gt;AppComponent  -->
<g id="edge7" class="edge">
<title>AppModule&#45;&gt;AppComponent </title>
<path fill="none" stroke="#000000" stroke-dasharray="1,5" d="M247,-252.1061C247,-252.1061 247,-270.991 247,-270.991"/>
<polygon fill="#000000" stroke="#000000" points="243.5001,-270.9909 247,-280.991 250.5001,-270.991 243.5001,-270.9909"/>
</g>
<!-- Location -->
<g id="node3" class="node">
<title>Location</title>
<ellipse fill="#fdb462" stroke="#000000" cx="455" cy="-104" rx="45.2247" ry="18"/>
<text text-anchor="middle" x="455" y="-99.8" font-family="Times,serif" font-size="14.00" fill="#000000">Location</text>
</g>
<!-- Location&#45;&gt;AppComponent -->
<g id="edge2" class="edge">
<title>Location&#45;&gt;AppComponent</title>
<path fill="none" stroke="#000000" d="M455,-122.1061C455,-122.1061 455,-140.991 455,-140.991"/>
<polygon fill="#000000" stroke="#000000" points="451.5001,-140.9909 455,-150.991 458.5001,-140.991 451.5001,-140.9909"/>
</g>
<!-- { : , : &#160;} -->
<g id="node4" class="node">
<title>{ : , : &#160;}</title>
<ellipse fill="#fdb462" stroke="#000000" cx="351" cy="-104" rx="40.3166" ry="18"/>
<text text-anchor="middle" x="351" y="-99.8" font-family="Times,serif" font-size="14.00" fill="#000000">{ : , : &#160;}</text>
</g>
<!-- { : , : &#160;}&#45;&gt;AppComponent -->
<g id="edge3" class="edge">
<title>{ : , : &#160;}&#45;&gt;AppComponent</title>
<path fill="none" stroke="#000000" d="M391.4086,-104C398.6573,-104 403.9592,-104 403.9592,-104 403.9592,-104 403.9592,-140.8939 403.9592,-140.8939"/>
<polygon fill="#000000" stroke="#000000" points="400.4593,-140.8938 403.9592,-150.8939 407.4593,-140.8939 400.4593,-140.8938"/>
</g>
<!-- AppRoutingModule -->
<g id="node5" class="node">
<title>AppRoutingModule</title>
<polygon fill="#8dd3c7" stroke="#000000" points="374.2744,-187 371.2744,-191 350.2744,-191 347.2744,-187 245.7256,-187 245.7256,-151 374.2744,-151 374.2744,-187"/>
<text text-anchor="middle" x="310" y="-164.8" font-family="Times,serif" font-size="14.00" fill="#000000">AppRoutingModule</text>
</g>
<!-- AppRoutingModule&#45;&gt;AppModule -->
<g id="edge4" class="edge">
<title>AppRoutingModule&#45;&gt;AppModule</title>
<path fill="none" stroke="#000000" d="M267.2206,-187.1061C267.2206,-187.1061 267.2206,-205.991 267.2206,-205.991"/>
<polygon fill="#000000" stroke="#000000" points="263.7206,-205.9909 267.2206,-215.991 270.7206,-205.991 263.7206,-205.9909"/>
</g>
<!-- CoreModule -->
<g id="node6" class="node">
<title>CoreModule</title>
<polygon fill="#8dd3c7" stroke="#000000" points="227.2619,-187 224.2619,-191 203.2619,-191 200.2619,-187 140.7381,-187 140.7381,-151 227.2619,-151 227.2619,-187"/>
<text text-anchor="middle" x="184" y="-164.8" font-family="Times,serif" font-size="14.00" fill="#000000">CoreModule</text>
</g>
<!-- CoreModule&#45;&gt;AppModule -->
<g id="edge5" class="edge">
<title>CoreModule&#45;&gt;AppModule</title>
<path fill="none" stroke="#000000" d="M216.2763,-187.1061C216.2763,-187.1061 216.2763,-205.991 216.2763,-205.991"/>
<polygon fill="#000000" stroke="#000000" points="212.7764,-205.9909 216.2763,-215.991 219.7764,-205.991 212.7764,-205.9909"/>
</g>
<!-- SharedModule -->
<g id="node7" class="node">
<title>SharedModule</title>
<polygon fill="#8dd3c7" stroke="#000000" points="122.4231,-187 119.4231,-191 98.4231,-191 95.4231,-187 23.5769,-187 23.5769,-151 122.4231,-151 122.4231,-187"/>
<text text-anchor="middle" x="73" y="-164.8" font-family="Times,serif" font-size="14.00" fill="#000000">SharedModule</text>
</g>
<!-- SharedModule&#45;&gt;AppModule -->
<g id="edge6" class="edge">
<title>SharedModule&#45;&gt;AppModule</title>
<path fill="none" stroke="#000000" d="M73,-187.1061C73,-206.3391 73,-234 73,-234 73,-234 195.3227,-234 195.3227,-234"/>
<polygon fill="#000000" stroke="#000000" points="195.3227,-237.5001 205.3227,-234 195.3226,-230.5001 195.3227,-237.5001"/>
</g>
</g>
</svg>
